<svg xmlns="http://www.w3.org/2000/svg" version="1.1" xmlns:xlink="http://www.w3.org/1999/xlink" xmlns:svgjs="http://svgjs.dev/svgjs" width="1440" height="560" preserveAspectRatio="none" viewBox="0 0 1440 560"><g mask="url(&quot;#SvgjsMask1279&quot;)" fill="none"><rect width="1440" height="560" x="0" y="0" fill="rgba(255, 255, 255, 1)"></rect><use xlink:href="#SvgjsG1287" transform="translate(0, 0)" fill="rgba(197, 197, 197, 1)"></use><use xlink:href="#SvgjsG1287" transform="translate(0, 540)" fill="rgba(197, 197, 197, 1)"></use><use xlink:href="#SvgjsG1287" transform="translate(540, 0)" fill="rgba(197, 197, 197, 1)"></use><use xlink:href="#SvgjsG1287" transform="translate(540, 540)" fill="rgba(197, 197, 197, 1)"></use><use xlink:href="#SvgjsG1287" transform="translate(1080, 0)" fill="rgba(197, 197, 197, 1)"></use><use xlink:href="#SvgjsG1287" transform="translate(1080, 540)" fill="rgba(197, 197, 197, 1)"></use></g><defs><mask id="SvgjsMask1279"><rect width="1440" height="560" fill="#ffffff"></rect></mask><g id="SvgjsG1283"><path d="M2.524 8.637H0.014V7.308h2.51v1.329zM3.656 4.576L1.884 2.804l0.935-0.935 1.772 1.772-0.935 0.935z m0 6.817l0.935 0.935-1.772 1.773-0.934-0.936 1.771-1.772z m4.997-8.884h-1.33V-0.002h1.33v2.511z m-1.33 10.952h1.33v2.51h-1.33v-2.509zM12.344 4.576l-0.96-0.935 1.796-1.772 0.935 0.935-1.772 1.772z m0 6.792l1.771 1.797-0.935 0.936-1.771-1.774 0.936-0.96z m3.643-4.06v1.329h-2.51V7.308h2.509z"></path><path d="M3.702 7.984a4.184 4.184 0 1 0 8.368 0 4.184 4.184 0 1 0-8.368 0"></path></g><g id="SvgjsG1282"><path d="M15.964 4.774l-1.312 10.327H10.223L8.916 4.774h5.408L15.395 1.04 16 1.21l-1.024 3.562 0.988 0.002zM8.29 10.788s0.166-1.502-2.131-1.502H2.5c-2.293 0-2.131 1.502-2.132 1.502h7.922zM0.368 13.595s-0.162 1.506 2.132 1.506h3.659c2.297 0 2.131-1.506 2.131-1.506H0.369z m7.578-0.727a0.68 0.68 0 0 0 0.68-0.68c0-0.372-0.304-0.676-0.68-0.676H0.68C0.306 11.512 0 11.816 0 12.188a0.682 0.682 0 0 0 0.68 0.68h7.266z"></path></g><g id="SvgjsG1284"><path d="M7.741 5.269c-0.003 0.523-0.481 1.084-1.101 1.084v8.856c0 1.261-1.714 1.261-1.716 0V6.354c-0.602 0-1.127-0.465-1.126-1.159V0.315c-0.001-0.423 0.612-0.44 0.616 0.017v3.606h0.51V0.299c0-0.389 0.59-0.414 0.591 0.016v3.623h0.526V0.307C6.044-0.103 6.618-0.12 6.616 0.323v3.615h0.526V0.307c-0.002-0.406 0.597-0.423 0.599 0.016v4.946zM12.309 1.449v13.76c0.002 1.229-1.715 1.211-1.717 0V9.746h-0.912V1.449c-0.001-1.932 2.631-1.932 2.629 0z"></path></g><g id="SvgjsG1285"><path d="M16 11.289H0C0.001 12.447 0.884 12.984 1.594 12.987H14.406c0.847-0.003 1.59-0.669 1.594-1.698zM12.96 3.12H3.413v6.263c0.002 0.851 0.734 1.523 1.525 1.525h6.194c0.893-0.002 1.502-0.752 1.498-1.525v-0.519c1.768-0.002 3.05-1.328 3.05-2.876 0.001-1.575-1.256-2.869-2.72-2.868zM12.63 7.668V4.298h0.33c1.211-0.002 1.599 1.143 1.593 1.698 0.001 0.896-0.662 1.755-1.923 1.672z"></path></g><g id="SvgjsG1286"><path d="M1.12 8.836c1.001-1.179 2.827-2.005 4.388-1.743 0.174-2.151-0.071-4.156 1-6.133C3.189 1.173 1.648 6.247 1.12 8.836M12.892 5.07c0.697-0.83 2.347-1.253 3.213-0.476C13.849 1.44 11.058-0.583 7.086 0.764c3.102 0.942 5.276 3.84 5.805 4.306"></path><path d="M12.267 5.198C11.182 3.684 7.769 1.266 7.019 1.417c-0.8 0.16-1.022 4.702-0.95 5.676 0.475-0.892 1.202-1.564 2.045-1.984l3.461 9.423 0.475-0.12-3.494-9.493c1.156-0.427 2.484-0.391 3.712 0.279"></path></g><g id="SvgjsG1280"><path d="M11.406 2.678H4.629C0.382 2.678 0.682 5.459 0.682 5.459h14.67S15.66 2.678 11.406 2.678zM4.629 13.447h6.777c4.254 0 3.947-2.789 3.946-2.789H0.682s-0.3 2.789 3.947 2.789z m10.087-4.135a1.259 1.259 0 0 0 1.259-1.259c0-0.69-0.562-1.252-1.259-1.252H1.259C0.566 6.801 0 7.363 0 8.052a1.262 1.262 0 0 0 1.259 1.26h13.457z" fill-rule="evenodd"></path></g><g id="SvgjsG1281"><path d="M10.902 1.099a0.294 0.294 0 0 1-0.25-0.29c0-0.111 0.063-0.203 0.151-0.257-0.091-0.051-0.15-0.148-0.151-0.256 0-0.164 0.13-0.296 0.293-0.296h1.453c0.163 0 0.292 0.131 0.292 0.296 0 0.113-0.063 0.209-0.158 0.256 0.091 0.05 0.158 0.146 0.158 0.257a0.295 0.295 0 0 1-0.25 0.29l1.764 4.821c0.11 0.31 0.167 0.66 0.166 1.008v8.549a0.58 0.58 0 0 1-0.581 0.58H9.549a0.579 0.579 0 0 1-0.577-0.581V6.93c0-0.349 0.057-0.698 0.163-1.011l1.767-4.82zM2.794 5.955a0.211 0.211 0 0 0 0.139 0.053c0.118 0 0.214-0.097 0.214-0.213 0-0.038-0.013-0.072-0.026-0.106l-0.24-0.56a0.342 0.342 0 0 0-0.304-0.189 0.343 0.343 0 0 0-0.25 0.582L2.794 5.956z m0.789 0.104c0.02 0.047 0.033 0.101 0.034 0.153 0 0.221-0.179 0.4-0.399 0.4-0.079 0-0.155-0.027-0.217-0.068l-0.958-0.801a0.71 0.71 0 0 1-0.166-0.458c0-0.388 0.312-0.706 0.699-0.706 0.287 0 0.537 0.18 0.638 0.433l0.37 1.047z m3.068 0.707a0.213 0.213 0 0 1 0.21 0.211v0.329c0 0.117-0.096 0.212-0.21 0.211l-0.194-0.008c0.234 0.148 0.404 0.405 0.404 0.707v7.185c0 0.368-0.293 0.665-0.655 0.665H2.438A0.662 0.662 0 0 1 1.778 15.401l0.004-7.185c0-0.302 0.167-0.559 0.402-0.707l-0.195 0.008a0.208 0.208 0 0 1-0.207-0.211v-0.329c0-0.115 0.091-0.212 0.207-0.211H6.651z"></path></g><g id="SvgjsG1287"><use xlink:href="#SvgjsG1280" transform="translate(0, 0) scale(2)" fill="rgba(197, 197, 197, 1)"></use><use xlink:href="#SvgjsG1281" transform="translate(0, 54) scale(2)" fill="rgba(197, 197, 197, 1)"></use><use xlink:href="#SvgjsG1282" transform="translate(0, 108) scale(2)" fill="rgba(197, 197, 197, 1)"></use><use xlink:href="#SvgjsG1283" transform="translate(0, 162) scale(2)" fill="rgba(197, 197, 197, 1)"></use><use xlink:href="#SvgjsG1284" transform="translate(0, 216) scale(2)" fill="rgba(197, 197, 197, 1)"></use><use xlink:href="#SvgjsG1285" transform="translate(0, 270) scale(2)" fill="rgba(197, 197, 197, 1)"></use><use xlink:href="#SvgjsG1286" transform="translate(0, 324) scale(2)" fill="rgba(197, 197, 197, 1)"></use><use xlink:href="#SvgjsG1285" transform="translate(0, 378) scale(2)" fill="rgba(197, 197, 197, 1)"></use><use xlink:href="#SvgjsG1285" transform="translate(0, 432) scale(2)" fill="rgba(197, 197, 197, 1)"></use><use xlink:href="#SvgjsG1283" transform="translate(0, 486) scale(2)" fill="rgba(197, 197, 197, 1)"></use><use xlink:href="#SvgjsG1285" transform="translate(54, 0) scale(2)" fill="rgba(197, 197, 197, 1)"></use><use xlink:href="#SvgjsG1281" transform="translate(54, 54) scale(2)" fill="rgba(197, 197, 197, 1)"></use><use xlink:href="#SvgjsG1286" transform="translate(54, 108) scale(2)" fill="rgba(197, 197, 197, 1)"></use><use xlink:href="#SvgjsG1285" transform="translate(54, 162) scale(2)" fill="rgba(197, 197, 197, 1)"></use><use xlink:href="#SvgjsG1285" transform="translate(54, 216) scale(2)" fill="rgba(197, 197, 197, 1)"></use><use xlink:href="#SvgjsG1285" transform="translate(54, 270) scale(2)" fill="rgba(197, 197, 197, 1)"></use><use xlink:href="#SvgjsG1284" transform="translate(54, 324) scale(2)" fill="rgba(197, 197, 197, 1)"></use><use xlink:href="#SvgjsG1284" transform="translate(54, 378) scale(2)" fill="rgba(197, 197, 197, 1)"></use><use xlink:href="#SvgjsG1283" transform="translate(54, 432) scale(2)" fill="rgba(197, 197, 197, 1)"></use><use xlink:href="#SvgjsG1285" transform="translate(54, 486) scale(2)" fill="rgba(197, 197, 197, 1)"></use><use xlink:href="#SvgjsG1284" transform="translate(108, 0) scale(2)" fill="rgba(197, 197, 197, 1)"></use><use xlink:href="#SvgjsG1282" transform="translate(108, 54) scale(2)" fill="rgba(197, 197, 197, 1)"></use><use xlink:href="#SvgjsG1281" transform="translate(108, 108) scale(2)" fill="rgba(197, 197, 197, 1)"></use><use xlink:href="#SvgjsG1285" transform="translate(108, 162) scale(2)" fill="rgba(197, 197, 197, 1)"></use><use xlink:href="#SvgjsG1282" transform="translate(108, 216) scale(2)" fill="rgba(197, 197, 197, 1)"></use><use xlink:href="#SvgjsG1285" transform="translate(108, 270) scale(2)" fill="rgba(197, 197, 197, 1)"></use><use xlink:href="#SvgjsG1284" transform="translate(108, 324) scale(2)" fill="rgba(197, 197, 197, 1)"></use><use xlink:href="#SvgjsG1283" transform="translate(108, 378) scale(2)" fill="rgba(197, 197, 197, 1)"></use><use xlink:href="#SvgjsG1285" transform="translate(108, 432) scale(2)" fill="rgba(197, 197, 197, 1)"></use><use xlink:href="#SvgjsG1286" transform="translate(108, 486) scale(2)" fill="rgba(197, 197, 197, 1)"></use><use xlink:href="#SvgjsG1285" transform="translate(162, 0) scale(2)" fill="rgba(197, 197, 197, 1)"></use><use xlink:href="#SvgjsG1281" transform="translate(162, 54) scale(2)" fill="rgba(197, 197, 197, 1)"></use><use xlink:href="#SvgjsG1283" transform="translate(162, 108) scale(2)" fill="rgba(197, 197, 197, 1)"></use><use xlink:href="#SvgjsG1281" transform="translate(162, 162) scale(2)" fill="rgba(197, 197, 197, 1)"></use><use xlink:href="#SvgjsG1281" transform="translate(162, 216) scale(2)" fill="rgba(197, 197, 197, 1)"></use><use xlink:href="#SvgjsG1281" transform="translate(162, 270) scale(2)" fill="rgba(197, 197, 197, 1)"></use><use xlink:href="#SvgjsG1280" transform="translate(162, 324) scale(2)" fill="rgba(197, 197, 197, 1)"></use><use xlink:href="#SvgjsG1285" transform="translate(162, 378) scale(2)" fill="rgba(197, 197, 197, 1)"></use><use xlink:href="#SvgjsG1284" transform="translate(162, 432) scale(2)" fill="rgba(197, 197, 197, 1)"></use><use xlink:href="#SvgjsG1285" transform="translate(162, 486) scale(2)" fill="rgba(197, 197, 197, 1)"></use><use xlink:href="#SvgjsG1281" transform="translate(216, 0) scale(2)" fill="rgba(197, 197, 197, 1)"></use><use xlink:href="#SvgjsG1285" transform="translate(216, 54) scale(2)" fill="rgba(197, 197, 197, 1)"></use><use xlink:href="#SvgjsG1281" transform="translate(216, 108) scale(2)" fill="rgba(197, 197, 197, 1)"></use><use xlink:href="#SvgjsG1284" transform="translate(216, 162) scale(2)" fill="rgba(197, 197, 197, 1)"></use><use xlink:href="#SvgjsG1285" transform="translate(216, 216) scale(2)" fill="rgba(197, 197, 197, 1)"></use><use xlink:href="#SvgjsG1281" transform="translate(216, 270) scale(2)" fill="rgba(197, 197, 197, 1)"></use><use xlink:href="#SvgjsG1286" transform="translate(216, 324) scale(2)" fill="rgba(197, 197, 197, 1)"></use><use xlink:href="#SvgjsG1282" transform="translate(216, 378) scale(2)" fill="rgba(197, 197, 197, 1)"></use><use xlink:href="#SvgjsG1285" transform="translate(216, 432) scale(2)" fill="rgba(197, 197, 197, 1)"></use><use xlink:href="#SvgjsG1281" transform="translate(216, 486) scale(2)" fill="rgba(197, 197, 197, 1)"></use><use xlink:href="#SvgjsG1280" transform="translate(270, 0) scale(2)" fill="rgba(197, 197, 197, 1)"></use><use xlink:href="#SvgjsG1285" transform="translate(270, 54) scale(2)" fill="rgba(197, 197, 197, 1)"></use><use xlink:href="#SvgjsG1284" transform="translate(270, 108) scale(2)" fill="rgba(197, 197, 197, 1)"></use><use xlink:href="#SvgjsG1282" transform="translate(270, 162) scale(2)" fill="rgba(197, 197, 197, 1)"></use><use xlink:href="#SvgjsG1281" transform="translate(270, 216) scale(2)" fill="rgba(197, 197, 197, 1)"></use><use xlink:href="#SvgjsG1285" transform="translate(270, 270) scale(2)" fill="rgba(197, 197, 197, 1)"></use><use xlink:href="#SvgjsG1286" transform="translate(270, 324) scale(2)" fill="rgba(197, 197, 197, 1)"></use><use xlink:href="#SvgjsG1282" transform="translate(270, 378) scale(2)" fill="rgba(197, 197, 197, 1)"></use><use xlink:href="#SvgjsG1285" transform="translate(270, 432) scale(2)" fill="rgba(197, 197, 197, 1)"></use><use xlink:href="#SvgjsG1284" transform="translate(270, 486) scale(2)" fill="rgba(197, 197, 197, 1)"></use><use xlink:href="#SvgjsG1283" transform="translate(324, 0) scale(2)" fill="rgba(197, 197, 197, 1)"></use><use xlink:href="#SvgjsG1284" transform="translate(324, 54) scale(2)" fill="rgba(197, 197, 197, 1)"></use><use xlink:href="#SvgjsG1280" transform="translate(324, 108) scale(2)" fill="rgba(197, 197, 197, 1)"></use><use xlink:href="#SvgjsG1285" transform="translate(324, 162) scale(2)" fill="rgba(197, 197, 197, 1)"></use><use xlink:href="#SvgjsG1282" transform="translate(324, 216) scale(2)" fill="rgba(197, 197, 197, 1)"></use><use xlink:href="#SvgjsG1286" transform="translate(324, 270) scale(2)" fill="rgba(197, 197, 197, 1)"></use><use xlink:href="#SvgjsG1280" transform="translate(324, 324) scale(2)" fill="rgba(197, 197, 197, 1)"></use><use xlink:href="#SvgjsG1285" transform="translate(324, 378) scale(2)" fill="rgba(197, 197, 197, 1)"></use><use xlink:href="#SvgjsG1284" transform="translate(324, 432) scale(2)" fill="rgba(197, 197, 197, 1)"></use><use xlink:href="#SvgjsG1281" transform="translate(324, 486) scale(2)" fill="rgba(197, 197, 197, 1)"></use><use xlink:href="#SvgjsG1285" transform="translate(378, 0) scale(2)" fill="rgba(197, 197, 197, 1)"></use><use xlink:href="#SvgjsG1283" transform="translate(378, 54) scale(2)" fill="rgba(197, 197, 197, 1)"></use><use xlink:href="#SvgjsG1285" transform="translate(378, 108) scale(2)" fill="rgba(197, 197, 197, 1)"></use><use xlink:href="#SvgjsG1285" transform="translate(378, 162) scale(2)" fill="rgba(197, 197, 197, 1)"></use><use xlink:href="#SvgjsG1281" transform="translate(378, 216) scale(2)" fill="rgba(197, 197, 197, 1)"></use><use xlink:href="#SvgjsG1282" transform="translate(378, 270) scale(2)" fill="rgba(197, 197, 197, 1)"></use><use xlink:href="#SvgjsG1280" transform="translate(378, 324) scale(2)" fill="rgba(197, 197, 197, 1)"></use><use xlink:href="#SvgjsG1283" transform="translate(378, 378) scale(2)" fill="rgba(197, 197, 197, 1)"></use><use xlink:href="#SvgjsG1280" transform="translate(378, 432) scale(2)" fill="rgba(197, 197, 197, 1)"></use><use xlink:href="#SvgjsG1283" transform="translate(378, 486) scale(2)" fill="rgba(197, 197, 197, 1)"></use><use xlink:href="#SvgjsG1286" transform="translate(432, 0) scale(2)" fill="rgba(197, 197, 197, 1)"></use><use xlink:href="#SvgjsG1280" transform="translate(432, 54) scale(2)" fill="rgba(197, 197, 197, 1)"></use><use xlink:href="#SvgjsG1284" transform="translate(432, 108) scale(2)" fill="rgba(197, 197, 197, 1)"></use><use xlink:href="#SvgjsG1286" transform="translate(432, 162) scale(2)" fill="rgba(197, 197, 197, 1)"></use><use xlink:href="#SvgjsG1282" transform="translate(432, 216) scale(2)" fill="rgba(197, 197, 197, 1)"></use><use xlink:href="#SvgjsG1285" transform="translate(432, 270) scale(2)" fill="rgba(197, 197, 197, 1)"></use><use xlink:href="#SvgjsG1284" transform="translate(432, 324) scale(2)" fill="rgba(197, 197, 197, 1)"></use><use xlink:href="#SvgjsG1286" transform="translate(432, 378) scale(2)" fill="rgba(197, 197, 197, 1)"></use><use xlink:href="#SvgjsG1285" transform="translate(432, 432) scale(2)" fill="rgba(197, 197, 197, 1)"></use><use xlink:href="#SvgjsG1280" transform="translate(432, 486) scale(2)" fill="rgba(197, 197, 197, 1)"></use><use xlink:href="#SvgjsG1284" transform="translate(486, 0) scale(2)" fill="rgba(197, 197, 197, 1)"></use><use xlink:href="#SvgjsG1283" transform="translate(486, 54) scale(2)" fill="rgba(197, 197, 197, 1)"></use><use xlink:href="#SvgjsG1285" transform="translate(486, 108) scale(2)" fill="rgba(197, 197, 197, 1)"></use><use xlink:href="#SvgjsG1281" transform="translate(486, 162) scale(2)" fill="rgba(197, 197, 197, 1)"></use><use xlink:href="#SvgjsG1285" transform="translate(486, 216) scale(2)" fill="rgba(197, 197, 197, 1)"></use><use xlink:href="#SvgjsG1280" transform="translate(486, 270) scale(2)" fill="rgba(197, 197, 197, 1)"></use><use xlink:href="#SvgjsG1281" transform="translate(486, 324) scale(2)" fill="rgba(197, 197, 197, 1)"></use><use xlink:href="#SvgjsG1281" transform="translate(486, 378) scale(2)" fill="rgba(197, 197, 197, 1)"></use><use xlink:href="#SvgjsG1283" transform="translate(486, 432) scale(2)" fill="rgba(197, 197, 197, 1)"></use><use xlink:href="#SvgjsG1280" transform="translate(486, 486) scale(2)" fill="rgba(197, 197, 197, 1)"></use></g></defs></svg>